<svg width="275" height="275" viewBox="0 0 275 275" fill="none" xmlns="http://www.w3.org/2000/svg">
<g clip-path="url(#clip0_302_2237)">
<path fill-rule="evenodd" clip-rule="evenodd" d="M196.01 180.881H197.328V206.593H196.01V342.922C196.01 348.466 193.807 353.784 189.887 357.704C185.966 361.625 180.649 363.827 175.104 363.827H98.5775C95.8322 363.827 93.1137 363.286 90.5773 362.236C88.0409 361.185 85.7363 359.645 83.795 357.704C81.8537 355.763 80.3138 353.458 79.2632 350.922C78.2126 348.385 77.6719 345.667 77.6719 342.922V144.761C77.6719 139.216 79.8745 133.899 83.795 129.978C87.7156 126.058 93.0331 123.855 98.5776 123.855H175.104C177.85 123.855 180.568 124.396 183.104 125.446C185.641 126.497 187.945 128.037 189.887 129.978C191.828 131.919 193.368 134.224 194.418 136.76C195.469 139.297 196.01 142.015 196.01 144.761V180.881ZM165.959 129.294H175.948C177.998 129.294 180.028 129.698 181.922 130.482C183.816 131.267 185.538 132.417 186.987 133.867C188.437 135.316 189.587 137.037 190.372 138.931C191.156 140.826 191.56 142.856 191.56 144.906V342.776C191.56 344.826 191.156 346.856 190.372 348.751C189.587 350.645 188.437 352.366 186.987 353.816C185.538 355.265 183.816 356.415 181.922 357.2C180.028 357.984 177.998 358.388 175.948 358.388H99.0527C97.0025 358.388 94.9723 357.984 93.0782 357.2C91.184 356.415 89.463 355.265 88.0132 353.816C86.5635 352.366 85.4135 350.645 84.629 348.751C83.8444 346.856 83.4406 344.826 83.4406 342.776V144.906C83.4406 142.856 83.8444 140.826 84.629 138.931C85.4135 137.037 86.5635 135.316 88.0132 133.867C89.463 132.417 91.184 131.267 93.0782 130.482C94.9723 129.698 97.0025 129.294 99.0527 129.294H108.383C107.923 130.42 107.748 131.642 107.872 132.852C107.996 134.062 108.416 135.223 109.094 136.232C109.773 137.242 110.689 138.069 111.763 138.641C112.836 139.213 114.034 139.512 115.25 139.512H159.091C160.307 139.512 161.505 139.213 162.579 138.641C163.652 138.069 164.568 137.242 165.247 136.232C165.925 135.223 166.345 134.062 166.469 132.852C166.593 131.642 166.418 130.42 165.959 129.294Z" fill="#CC3A53"/>
</g>
<rect x="4.29688" y="4.29688" width="266.406" height="266.406" rx="133.203" stroke="#CC3A53" stroke-width="8.59375"/>
<defs>
<clipPath id="clip0_302_2237">
<rect width="275" height="275" rx="137.5" fill="white"/>
</clipPath>
</defs>
</svg>
