<svg width="127" height="32" viewBox="0 0 127 32" fill="none" xmlns="http://www.w3.org/2000/svg">
<path d="M17.0542 8.3418H9.31592V10.826H17.0542V8.3418Z" fill="#CC3A53"/>
<path d="M9.31521 29.4826H17.0571L17.0573 11.8965H9.31539L9.31521 29.4826ZM13.1818 19.3001C14.5888 19.3001 15.7333 20.4449 15.7333 21.8518C15.7333 23.2551 14.5888 24.3967 13.1818 24.3967C11.7785 24.3967 10.6369 23.2551 10.6369 21.8518C10.6369 20.4449 11.7785 19.3001 13.1818 19.3001ZM4.36914 23.326C5.18583 23.326 5.85008 22.6646 5.85008 21.8519C5.85008 21.0352 5.18583 20.3709 4.36914 20.3709C3.55639 20.3709 2.89502 21.0352 2.89502 21.8519C2.89502 22.6646 3.55639 23.326 4.36914 23.326Z" fill="#CC3A53"/>
<path d="M13.1816 23.3262C13.9981 23.3262 14.6623 22.6648 14.6623 21.852C14.6623 21.0353 13.9981 20.3711 13.1816 20.3711C12.3689 20.3711 11.7075 21.0353 11.7075 21.852C11.7075 22.6648 12.3689 23.3262 13.1816 23.3262Z" fill="#CC3A53"/>
<path d="M17.0574 2.51758H9.31543V7.27095H17.0574V2.51758Z" fill="#CC3A53"/>
<path d="M8.24334 2.51758H0.501465V7.27095H8.24334V2.51758Z" fill="#CC3A53"/>
<path d="M8.24167 8.3418H0.503418V10.826H8.24167V8.3418Z" fill="#CC3A53"/>
<path d="M0.500977 29.4826H8.24285L8.24304 11.8965H0.501164L0.500977 29.4826ZM4.36891 19.3001C5.77585 19.3001 6.9206 20.4449 6.9206 21.8518C6.9206 23.2551 5.77585 24.3967 4.36891 24.3967C2.9656 24.3967 1.82398 23.2551 1.82398 21.8518C1.82404 20.4449 2.9656 19.3001 4.36891 19.3001Z" fill="#CC3A53"/>
<path d="M27.1617 7.99965L20.0864 9.94547L20.7023 12.1849L27.7776 10.2391L27.1617 7.99965Z" fill="#CC3A53"/>
<path d="M25.6919 2.64148L18.6118 4.5874L19.8014 8.91547L26.8814 6.96955L25.6919 2.64148Z" fill="#CC3A53"/>
<path d="M28.0655 11.2703L20.9824 13.2191L25.4207 29.361L32.4985 27.4121L28.0655 11.2703ZM27.0269 23.8411C25.6778 23.8411 24.5802 22.7383 24.5802 21.3891C24.5802 20.0292 25.6778 18.9263 27.0269 18.9263C28.3868 18.9263 29.4897 20.0292 29.4897 21.3891C29.4897 22.7383 28.3868 23.8411 27.0269 23.8411Z" fill="#CC3A53"/>
<path d="M27.0317 22.86C27.8482 22.86 28.5124 22.1986 28.5124 21.3859C28.5124 20.5692 27.8482 19.9049 27.0317 19.9049C26.219 19.9049 25.5576 20.5692 25.5576 21.3859C25.5576 22.1986 26.219 22.86 27.0317 22.86Z" fill="#CC3A53"/>
<path d="M41.13 18.166H42.786C42.822 18.634 42.978 19.06 43.254 19.444C43.542 19.816 43.926 20.11 44.406 20.326C44.898 20.542 45.468 20.65 46.116 20.65C46.68 20.65 47.148 20.572 47.52 20.416C47.892 20.26 48.168 20.05 48.348 19.786C48.54 19.51 48.636 19.186 48.636 18.814C48.636 18.442 48.534 18.148 48.33 17.932C48.126 17.704 47.82 17.518 47.412 17.374C47.004 17.218 46.5 17.068 45.9 16.924C45.372 16.792 44.85 16.636 44.334 16.456C43.83 16.264 43.362 16.03 42.93 15.754C42.51 15.478 42.168 15.148 41.904 14.764C41.652 14.368 41.526 13.894 41.526 13.342C41.526 12.754 41.688 12.22 42.012 11.74C42.336 11.248 42.81 10.858 43.434 10.57C44.07 10.27 44.838 10.12 45.738 10.12C47.13 10.12 48.18 10.468 48.888 11.164C49.608 11.86 49.956 12.79 49.932 13.954H48.312C48.276 13.138 48.018 12.556 47.538 12.208C47.058 11.848 46.434 11.668 45.666 11.668C45.006 11.668 44.442 11.806 43.974 12.082C43.506 12.346 43.272 12.766 43.272 13.342C43.272 13.594 43.326 13.816 43.434 14.008C43.542 14.188 43.722 14.356 43.974 14.512C44.226 14.668 44.562 14.818 44.982 14.962C45.414 15.106 45.948 15.262 46.584 15.43C47.064 15.538 47.526 15.676 47.97 15.844C48.426 16.012 48.834 16.222 49.194 16.474C49.554 16.726 49.836 17.05 50.04 17.446C50.256 17.842 50.364 18.328 50.364 18.904C50.364 19.516 50.214 20.074 49.914 20.578C49.614 21.07 49.146 21.466 48.51 21.766C47.886 22.054 47.076 22.198 46.08 22.198C45.288 22.198 44.598 22.096 44.01 21.892C43.434 21.688 42.948 21.424 42.552 21.1C42.168 20.776 41.862 20.428 41.634 20.056C41.418 19.684 41.268 19.33 41.184 18.994C41.112 18.658 41.094 18.382 41.13 18.166ZM61.018 18.58C60.946 19.324 60.706 19.972 60.298 20.524C59.902 21.064 59.38 21.478 58.732 21.766C58.084 22.054 57.364 22.198 56.572 22.198C55.696 22.198 54.892 22.018 54.16 21.658C53.428 21.286 52.84 20.752 52.396 20.056C51.964 19.348 51.748 18.508 51.748 17.536C51.748 16.552 51.964 15.712 52.396 15.016C52.84 14.308 53.428 13.768 54.16 13.396C54.892 13.024 55.696 12.838 56.572 12.838C57.364 12.838 58.078 12.982 58.714 13.27C59.35 13.558 59.872 13.972 60.28 14.512C60.688 15.04 60.934 15.676 61.018 16.42H59.452C59.248 15.772 58.882 15.262 58.354 14.89C57.838 14.506 57.244 14.314 56.572 14.314C56.02 14.314 55.504 14.44 55.024 14.692C54.556 14.944 54.178 15.31 53.89 15.79C53.614 16.258 53.476 16.84 53.476 17.536C53.476 18.208 53.614 18.784 53.89 19.264C54.178 19.732 54.556 20.092 55.024 20.344C55.492 20.584 56.008 20.704 56.572 20.704C57.34 20.704 57.964 20.518 58.444 20.146C58.924 19.774 59.266 19.252 59.47 18.58H61.018ZM66.5236 22.18C65.7556 22.18 65.0536 21.982 64.4176 21.586C63.7816 21.19 63.2776 20.644 62.9056 19.948C62.5336 19.24 62.3476 18.43 62.3476 17.518C62.3476 16.606 62.5336 15.802 62.9056 15.106C63.2896 14.398 63.8116 13.846 64.4716 13.45C65.1316 13.042 65.8696 12.838 66.6856 12.838C67.5856 12.838 68.2816 13.048 68.7736 13.468C69.2776 13.888 69.6256 14.452 69.8176 15.16C70.0216 15.868 70.1236 16.654 70.1236 17.518C70.1236 17.998 70.0636 18.508 69.9436 19.048C69.8236 19.588 69.6316 20.098 69.3676 20.578C69.1036 21.058 68.7376 21.448 68.2696 21.748C67.8016 22.036 67.2196 22.18 66.5236 22.18ZM67.0096 20.686C67.6456 20.686 68.1796 20.548 68.6116 20.272C69.0556 19.984 69.3856 19.6 69.6016 19.12C69.8176 18.64 69.9256 18.106 69.9256 17.518C69.9256 16.882 69.8116 16.324 69.5836 15.844C69.3676 15.364 69.0376 14.992 68.5936 14.728C68.1616 14.464 67.6336 14.332 67.0096 14.332C66.0736 14.332 65.3476 14.632 64.8316 15.232C64.3276 15.832 64.0756 16.594 64.0756 17.518C64.0756 18.142 64.2016 18.694 64.4536 19.174C64.7056 19.642 65.0476 20.014 65.4796 20.29C65.9236 20.554 66.4336 20.686 67.0096 20.686ZM69.9256 13.018H71.6536V22H70.0696C70.0696 22 70.0576 21.892 70.0336 21.676C70.0096 21.448 69.9856 21.178 69.9616 20.866C69.9376 20.554 69.9256 20.278 69.9256 20.038V13.018ZM73.9074 13.018H75.6354V22H73.9074V13.018ZM79.0554 12.838C79.5594 12.838 80.0154 12.91 80.4234 13.054C80.8314 13.198 81.1794 13.414 81.4674 13.702C81.7554 13.978 81.9774 14.326 82.1334 14.746C82.3014 15.154 82.3854 15.622 82.3854 16.15V22H80.6754V16.528C80.6754 15.82 80.5014 15.292 80.1534 14.944C79.8174 14.584 79.3014 14.404 78.6054 14.404C78.0654 14.404 77.5734 14.53 77.1294 14.782C76.6854 15.034 76.3194 15.37 76.0314 15.79C75.7554 16.198 75.5874 16.66 75.5274 17.176L75.5094 16.186C75.5694 15.706 75.6954 15.262 75.8874 14.854C76.0914 14.446 76.3434 14.092 76.6434 13.792C76.9554 13.48 77.3154 13.246 77.7234 13.09C78.1314 12.922 78.5754 12.838 79.0554 12.838ZM84.1437 18.166H85.7997C85.8357 18.634 85.9917 19.06 86.2677 19.444C86.5557 19.816 86.9397 20.11 87.4197 20.326C87.9117 20.542 88.4817 20.65 89.1297 20.65C89.6937 20.65 90.1617 20.572 90.5337 20.416C90.9057 20.26 91.1817 20.05 91.3617 19.786C91.5537 19.51 91.6497 19.186 91.6497 18.814C91.6497 18.442 91.5477 18.148 91.3437 17.932C91.1397 17.704 90.8337 17.518 90.4257 17.374C90.0177 17.218 89.5137 17.068 88.9137 16.924C88.3857 16.792 87.8637 16.636 87.3477 16.456C86.8437 16.264 86.3757 16.03 85.9437 15.754C85.5237 15.478 85.1817 15.148 84.9177 14.764C84.6657 14.368 84.5397 13.894 84.5397 13.342C84.5397 12.754 84.7017 12.22 85.0257 11.74C85.3497 11.248 85.8237 10.858 86.4477 10.57C87.0837 10.27 87.8517 10.12 88.7517 10.12C90.1437 10.12 91.1937 10.468 91.9017 11.164C92.6217 11.86 92.9697 12.79 92.9457 13.954H91.3257C91.2897 13.138 91.0317 12.556 90.5517 12.208C90.0717 11.848 89.4477 11.668 88.6797 11.668C88.0197 11.668 87.4557 11.806 86.9877 12.082C86.5197 12.346 86.2857 12.766 86.2857 13.342C86.2857 13.594 86.3397 13.816 86.4477 14.008C86.5557 14.188 86.7357 14.356 86.9877 14.512C87.2397 14.668 87.5757 14.818 87.9957 14.962C88.4277 15.106 88.9617 15.262 89.5977 15.43C90.0777 15.538 90.5397 15.676 90.9837 15.844C91.4397 16.012 91.8477 16.222 92.2077 16.474C92.5677 16.726 92.8497 17.05 93.0537 17.446C93.2697 17.842 93.3777 18.328 93.3777 18.904C93.3777 19.516 93.2277 20.074 92.9277 20.578C92.6277 21.07 92.1597 21.466 91.5237 21.766C90.8997 22.054 90.0897 22.198 89.0937 22.198C88.3017 22.198 87.6117 22.096 87.0237 21.892C86.4477 21.688 85.9617 21.424 85.5657 21.1C85.1817 20.776 84.8757 20.428 84.6477 20.056C84.4317 19.684 84.2817 19.33 84.1977 18.994C84.1257 18.658 84.1077 18.382 84.1437 18.166ZM102.196 22V16.582C102.196 16.102 102.118 15.706 101.962 15.394C101.806 15.082 101.572 14.848 101.26 14.692C100.948 14.524 100.552 14.44 100.072 14.44C99.5437 14.44 99.0577 14.566 98.6137 14.818C98.1817 15.058 97.8277 15.388 97.5517 15.808C97.2757 16.216 97.1077 16.678 97.0477 17.194L97.0297 16.168C97.0897 15.7 97.2157 15.262 97.4077 14.854C97.6117 14.446 97.8637 14.092 98.1637 13.792C98.4757 13.492 98.8357 13.258 99.2437 13.09C99.6517 12.922 100.096 12.838 100.576 12.838C101.08 12.838 101.536 12.91 101.944 13.054C102.352 13.186 102.7 13.396 102.988 13.684C103.288 13.96 103.516 14.302 103.672 14.71C103.828 15.106 103.906 15.562 103.906 16.078V22H102.196ZM95.4457 22V9.418H97.1557V22H95.4457ZM113.111 19.084H114.749C114.653 19.672 114.425 20.2 114.065 20.668C113.705 21.136 113.231 21.508 112.643 21.784C112.055 22.06 111.365 22.198 110.573 22.198C109.637 22.198 108.803 22 108.071 21.604C107.339 21.208 106.763 20.662 106.343 19.966C105.923 19.27 105.713 18.46 105.713 17.536C105.713 16.6 105.917 15.784 106.325 15.088C106.733 14.38 107.297 13.828 108.017 13.432C108.737 13.036 109.559 12.838 110.483 12.838C111.455 12.838 112.271 13.03 112.931 13.414C113.591 13.798 114.077 14.368 114.389 15.124C114.713 15.868 114.845 16.798 114.785 17.914H107.423C107.483 18.454 107.645 18.934 107.909 19.354C108.185 19.774 108.545 20.104 108.989 20.344C109.445 20.584 109.967 20.704 110.555 20.704C111.215 20.704 111.767 20.554 112.211 20.254C112.655 19.954 112.955 19.564 113.111 19.084ZM110.501 14.314C109.721 14.314 109.073 14.524 108.557 14.944C108.041 15.352 107.699 15.898 107.531 16.582H113.057C113.009 15.85 112.745 15.292 112.265 14.908C111.785 14.512 111.197 14.314 110.501 14.314ZM116.785 9.418H118.513V22H116.785V9.418ZM120 13.072H125.886V14.548H120V13.072ZM124.914 9.418H126.066V11.002H125.094C124.782 10.99 124.5 11.032 124.248 11.128C123.996 11.212 123.798 11.368 123.654 11.596C123.522 11.824 123.456 12.154 123.456 12.586V22H121.746V12.496C121.746 11.776 121.872 11.188 122.124 10.732C122.388 10.276 122.76 9.946 123.24 9.742C123.72 9.526 124.278 9.418 124.914 9.418Z" fill="#413C3A"/>
</svg>
