<svg width="24" height="25" viewBox="0 0 24 25" fill="none" xmlns="http://www.w3.org/2000/svg">
<path fill-rule="evenodd" clip-rule="evenodd" d="M11.9451 1.75H12.0549C13.4225 1.74998 14.5248 1.74996 15.3918 1.86652C16.2919 1.98754 17.0497 2.24643 17.6517 2.84835C18.0515 3.24821 18.3 3.7169 18.4572 4.25038C18.9415 4.25175 19.3537 4.25801 19.7031 4.28655C20.1663 4.3244 20.5847 4.40514 20.9755 4.60423C21.587 4.91582 22.0842 5.41301 22.3958 6.02453C22.5949 6.41527 22.6756 6.83367 22.7134 7.29693C22.75 7.7445 22.75 8.29521 22.75 8.96859V16.0314C22.75 16.7048 22.75 17.2555 22.7134 17.7031C22.6756 18.1663 22.5949 18.5847 22.3958 18.9755C22.0842 19.587 21.587 20.0842 20.9755 20.3958C20.5847 20.5949 20.1663 20.6756 19.7031 20.7134C19.3537 20.742 18.9415 20.7483 18.4572 20.7496C18.3 21.2831 18.0515 21.7518 17.6517 22.1517C17.0497 22.7536 16.2919 23.0125 15.3918 23.1335C14.5248 23.25 13.4225 23.25 12.0549 23.25H11.9451C10.5775 23.25 9.47522 23.25 8.60825 23.1335C7.70814 23.0125 6.95027 22.7536 6.34835 22.1517C5.94849 21.7518 5.70001 21.2831 5.54277 20.7496C5.05846 20.7483 4.64627 20.742 4.29693 20.7134C3.83367 20.6756 3.41527 20.5949 3.02453 20.3958C2.413 20.0842 1.91582 19.587 1.60423 18.9755C1.40514 18.5847 1.3244 18.1663 1.28655 17.7031C1.24998 17.2555 1.24999 16.7048 1.25 16.0314V8.96858C1.24999 8.2952 1.24998 7.7445 1.28655 7.29693C1.3244 6.83367 1.40514 6.41527 1.60423 6.02453C1.91582 5.41301 2.413 4.91582 3.02453 4.60423C3.41527 4.40514 3.83367 4.3244 4.29693 4.28655C4.64628 4.25801 5.05846 4.25175 5.54277 4.25038C5.70001 3.7169 5.94849 3.24821 6.34835 2.84835C6.95027 2.24643 7.70814 1.98754 8.60825 1.86652C9.47521 1.74996 10.5775 1.74998 11.9451 1.75ZM5.30265 5.75169C4.94458 5.75449 4.6597 5.76191 4.41908 5.78157C4.04858 5.81184 3.84956 5.86735 3.70552 5.94074C3.37623 6.10852 3.10852 6.37623 2.94074 6.70552C2.86735 6.84956 2.81184 7.04858 2.78157 7.41908C2.75058 7.79833 2.75 8.28756 2.75 9V16C2.75 16.7124 2.75058 17.2017 2.78157 17.5809C2.81184 17.9514 2.86735 18.1504 2.94074 18.2945C3.10852 18.6238 3.37623 18.8915 3.70552 19.0593C3.84956 19.1327 4.04858 19.1882 4.41908 19.2184C4.6597 19.2381 4.94458 19.2455 5.30265 19.2483C5.24997 18.4977 5.24998 17.6044 5.25 16.5549V8.44513C5.24998 7.39559 5.24997 6.50229 5.30265 5.75169ZM18.75 8.44511C18.75 7.39558 18.75 6.50228 18.6974 5.75169C19.0554 5.75449 19.3403 5.76191 19.5809 5.78157C19.9514 5.81184 20.1504 5.86735 20.2945 5.94074C20.6238 6.10852 20.8915 6.37623 21.0593 6.70552C21.1327 6.84956 21.1882 7.04858 21.2184 7.41908C21.2494 7.79833 21.25 8.28756 21.25 9V16C21.25 16.7124 21.2494 17.2017 21.2184 17.5809C21.1882 17.9514 21.1327 18.1504 21.0593 18.2945C20.8915 18.6238 20.6238 18.8915 20.2945 19.0593C20.1504 19.1327 19.9514 19.1882 19.5809 19.2184C19.3403 19.2381 19.0554 19.2455 18.6974 19.2483C18.75 18.4977 18.75 17.6044 18.75 16.5549V8.44511ZM8.80812 3.35315C8.07435 3.4518 7.68577 3.63225 7.40901 3.90901C7.13225 4.18577 6.9518 4.57435 6.85315 5.30812C6.75159 6.06347 6.75 7.06459 6.75 8.5V16.5C6.75 17.9354 6.75159 18.9365 6.85315 19.6919C6.9518 20.4257 7.13225 20.8142 7.40901 21.091C7.68577 21.3678 8.07435 21.5482 8.80812 21.6469C9.56347 21.7484 10.5646 21.75 12 21.75C13.4354 21.75 14.4365 21.7484 15.1919 21.6469C15.9257 21.5482 16.3142 21.3678 16.591 21.091C16.8678 20.8142 17.0482 20.4257 17.1469 19.6919C17.2484 18.9365 17.25 17.9354 17.25 16.5V8.5C17.25 7.06459 17.2484 6.06347 17.1469 5.30812C17.0482 4.57435 16.8678 4.18577 16.591 3.90901C16.3142 3.63225 15.9257 3.4518 15.1919 3.35315C14.4365 3.25159 13.4354 3.25 12 3.25C10.5646 3.25 9.56347 3.25159 8.80812 3.35315Z" fill="#776D6A"/>
</svg>
